<svg width="62" height="63" fill="none" xmlns="http://www.w3.org/2000/svg"><path d="M61.35 38.997a1.04 1.04 0 00-1.137.248L55.8 43.884V16.33h.005l4.211-4.547a1.033 1.033 0 00-.057-1.46l-.001-.001-1.516-1.41 2.106-2.274a1.033 1.033 0 00-.058-1.46L55.943.968a1.033 1.033 0 00-1.46.056l-7.346 7.933h-35.77A5.173 5.173 0 006.2 3.79H5.167A5.173 5.173 0 000 8.957v44.434c0 .57.463 1.033 1.034 1.033h15.642l-2.17 2.605a1.033 1.033 0 00.133 1.455l4.765 3.968c.438.365 1.09.305 1.455-.133l5.29-6.355c.365-.44.6-.974.677-1.54h18.935l-6.21 6.521a1.033 1.033 0 00.75 1.745h20.665c.571 0 1.034-.462 1.034-1.033v-21.7c0-.423-.257-.803-.65-.96zm-3.552-27.87l-1.998 2.16v-1.52l1.24-1.342.758.702zm-4.065-.184v.015l-8.739 9.444-3.035-2.807L52.487 6.217l3.035 2.808-1.776 1.918h-.013zM43.01 21.38l-2.377.693.507-2.424 1.87 1.73zM55.295 3.184l3.033 2.806-1.404 1.52-3.033-2.81 1.404-1.516zM5.167 5.857H6.2a3.1 3.1 0 013.1 3.1v39.294a5.114 5.114 0 00-3.1-1.06H5.167a5.113 5.113 0 00-3.1 1.06V8.957a3.1 3.1 0 013.1-3.1zm0 43.4H6.2a3.1 3.1 0 013.1 3.1H2.067a3.1 3.1 0 013.1-3.1zm19.394 5.386l-.661.793-3.176-2.644.66-.794a1.033 1.033 0 011.455-.133l1.589 1.319c.439.365.499 1.016.134 1.455v.004zm-4.628 5.56l-3.177-2.645 2.645-3.178 3.176 2.645-2.644 3.177zm6.46-7.846a3.067 3.067 0 00-.643-.758l-1.588-1.322a3.1 3.1 0 00-4.366.399l-1.402 1.681h-7.027V11.024h33.858L39.74 16.95a1.003 1.003 0 00-.216.39c-.01.03-.026.062-.033.095l-1.234 5.898a1.033 1.033 0 001.3 1.203l5.788-1.687c.027-.008.05-.024.075-.033a.848.848 0 00.08-.036c.117-.053.222-.127.31-.218L53.734 14v32.053l-6.003 6.303H26.392zm33.54 8.267H42.711L59.933 42.54v18.084z" fill="#DDA046"/></svg>