<svg width="39" height="39" fill="none" xmlns="http://www.w3.org/2000/svg"><path d="M35.046 3.338H31.43V2.276A2.278 2.278 0 0029.154 0a2.278 2.278 0 00-2.275 2.276v1.062H14.135V2.276A2.278 2.278 0 0011.859 0a2.278 2.278 0 00-2.276 2.276v1.09a.757.757 0 00-.202-.028H6.359A3.797 3.797 0 002.566 7.13v12.92a.759.759 0 001.517 0v-8.9H31.43a.759.759 0 000-1.517H4.083V7.13a2.278 2.278 0 012.276-2.276H9.38a.76.76 0 00.202-.028v.976a2.278 2.278 0 002.276 2.276 2.278 2.278 0 002.276-2.276v-.948h12.744v.948a2.278 2.278 0 002.275 2.276 2.278 2.278 0 002.276-2.276v-.948h3.616a2.278 2.278 0 012.276 2.276v28.825c0 .753-.613 1.366-1.366 1.366a1.367 1.367 0 01-1.366-1.366v-1.963a.759.759 0 00-.759-.758h-8.824a.759.759 0 000 1.517h8.066v1.204c0 .494.125.959.344 1.366H2.883a1.367 1.367 0 01-1.366-1.366v-1.204h16.979a.759.759 0 100-1.517h-7.58a6.207 6.207 0 002.168-4.713c0-3.43-2.79-6.22-6.22-6.22-3.43 0-6.22 2.79-6.22 6.22 0 1.883.84 3.571 2.166 4.713H.76a.759.759 0 00-.759.758v1.963a2.886 2.886 0 002.883 2.883h33.073a2.886 2.886 0 002.883-2.883V7.13a3.797 3.797 0 00-3.793-3.793zM12.618 5.803a.76.76 0 01-1.518 0V2.276a.76.76 0 011.518 0v3.527zm17.295 0a.76.76 0 01-1.517 0V2.276a.76.76 0 011.517 0v3.527zM2.16 28.523a4.708 4.708 0 014.703-4.704 4.708 4.708 0 014.704 4.703 4.708 4.708 0 01-4.704 4.703 4.708 4.708 0 01-4.703-4.703z" fill="#DDA046"/></svg>