<svg width="53" height="54" fill="none" xmlns="http://www.w3.org/2000/svg"><path d="M46.973 9.549C43.141 4.802 37.795 1.502 31.921.258a1.037 1.037 0 00-1.225.818c-.116.57.244 1.129.803 1.247 11.259 2.385 19.43 12.634 19.43 24.37 0 13.724-10.958 24.89-24.429 24.89-13.47 0-24.43-11.166-24.43-24.89 0-12.054 8.436-22.355 20.058-24.494.563-.103.936-.652.835-1.225a1.037 1.037 0 00-1.203-.85c-6.033 1.11-11.544 4.364-15.52 9.164C2.216 14.146 0 20.327 0 26.692c0 7.212 2.757 13.993 7.762 19.093 5.005 5.1 11.66 7.907 18.738 7.907 7.078 0 13.733-2.808 18.738-7.907C50.243 40.685 53 33.905 53 26.692c0-6.242-2.14-12.331-6.027-17.143z" fill="#DDA046"/></svg>