<svg width="48" height="48" fill="none" xmlns="http://www.w3.org/2000/svg"><path d="M47.12 1.053a1.418 1.418 0 00-1.153-.947c-.316-.038-7.743-.947-11.12 2.956-2.826 3.275-1.692 8.583-1.165 10.459-.66 1.004-2.28 3.325-4.913 6.505 1.143-2.027 2.1-4.617 1.497-7.112-1.226-5.052-8.21-7.2-8.527-7.288a1.411 1.411 0 00-1.427.373c-.218.227-5.315 5.684-4.105 10.695 1.21 5.012 8.21 7.2 8.526 7.289.132.04.27.06.407.06.047.003.093.003.14 0a137.87 137.87 0 01-7.794 7.895c1.086-1.85 1.932-4.13 1.522-6.392-.929-5.116-7.788-7.661-8.081-7.768a1.417 1.417 0 00-1.453.315c-.23.218-5.637 5.369-4.715 10.444.86 4.736 6.796 7.263 7.895 7.702A147.9 147.9 0 01.61 45.44a1.402 1.402 0 00.802 2.558 1.4 1.4 0 00.799-.25 149.875 149.875 0 0012.423-9.524c.012.057.03.113.05.167.108.29 2.669 7.106 7.82 8.024.394.072.795.108 1.196.108 4.69 0 9.11-4.579 9.313-4.788a1.402 1.402 0 00.316-1.449c-.108-.29-2.672-7.105-7.822-8.027-1.794-.316-3.597.136-5.192.871a133.01 133.01 0 006.486-6.568c.787 1.579 3.594 6.556 8.05 7.09.264.03.53.047.796.047 4.844 0 9.23-5.1 9.423-5.328a1.402 1.402 0 00.218-1.465c-.123-.281-3.08-6.947-8.274-7.56-1.721-.205-3.407.287-4.898 1.042 1.94-2.422 3.202-4.225 3.837-5.166.357.022.805.04 1.317.04 2.526 0 6.631-.45 8.899-3.075 3.41-3.944 1.051-10.844.95-11.135zM12.982 33.29c-1.876-.862-4.993-2.779-5.448-5.283-.455-2.504 1.806-5.684 3.253-7.263 1.872.856 5.002 2.77 5.444 5.286.442 2.517-1.803 5.675-3.25 7.26zm12.015 1.734c2.527.451 4.453 3.546 5.321 5.406-1.452 1.307-4.187 3.288-6.606 3.288a4.08 4.08 0 01-.707-.06c-2.527-.452-4.453-3.55-5.321-5.407 1.579-1.44 4.736-3.688 7.313-3.227zM24.7 21.009c-1.92-.748-5.14-2.476-5.753-4.964-.613-2.489 1.48-5.773 2.842-7.437 1.895.748 5.131 2.479 5.731 4.97.6 2.492-1.471 5.767-2.82 7.431zm11.962 1.128c2.546.315 4.655 3.28 5.628 5.087-1.51 1.528-4.52 3.954-7.112 3.644-2.542-.316-4.651-3.284-5.627-5.09 1.513-1.529 4.522-3.954 7.111-3.642zm7.355-11.776c-1.702 1.954-5.567 2.191-7.702 2.078-.508-1.99-.982-5.606.685-7.535 1.668-1.93 5.555-2.192 7.703-2.062.511 1.973.982 5.59-.686 7.519z" fill="#DDA046"/></svg>