<svg width="54" height="55" fill="none" xmlns="http://www.w3.org/2000/svg"><path d="M51.3 33.093h-8.1v-13.5h8.1a.9.9 0 00.9-.9v-4.436L53.99 1.72A.9.9 0 0053.1.694H27.9a.9.9 0 00-.891 1.027l1.79 12.536v4.437a.9.9 0 00.9.9h8.1v13.5h-.9a2.7 2.7 0 000 5.4h.9v1.8h-6.3l.84-12.6h.96a.9.9 0 00.9-.9v-3.6a.9.9 0 00-.9-.9h-6.367a6.312 6.312 0 00-3.187-4.611 6.3 6.3 0 10-11.988-3.435 8.986 8.986 0 00-9.9 7.967l-.008.079H.9a.9.9 0 00-.9.9v3.6a.9.9 0 00.9.9h.958L3.6 53.853a.9.9 0 00.9.84h48.6a.9.9 0 00.9-.9v-18a2.7 2.7 0 00-2.7-2.7zm-22.362-30.6H32.4v5.4h1.8v-5.4H36v1.8h1.8v-1.8h5.4v2.7H45v-2.7h1.8v5.4h1.8v-5.4h3.462l-1.542 10.8H30.48l-1.542-10.8zm1.662 15.3v-2.7h19.8v2.7H30.6zm10.8 1.8v13.5h-1.8v-13.5h1.8zm-9 4.5v1.8H18.9v-1.8h13.5zM11.673 16.05c.248.031.493.075.736.13h.03a7.232 7.232 0 012.886 1.413l1.132-1.4a9.04 9.04 0 00-2.91-1.56 4.488 4.488 0 118.19 2.97.9.9 0 00.45 1.35 4.5 4.5 0 012.91 3.34H18a.9.9 0 00-.9.9v8.1a.9.9 0 01-1.8 0v-1.8a2.7 2.7 0 10-5.4 0v6.3a.9.9 0 01-1.8 0v-12.6a.9.9 0 00-.9-.9H3.66a7.183 7.183 0 018.013-6.243zM1.8 25.893v-1.8h4.5v1.8H1.8zm23.4 17.1v9.9H5.342l-1.68-25.2H6.3v8.1a2.7 2.7 0 105.4 0v-6.3a.9.9 0 111.8 0v1.8a2.7 2.7 0 005.4 0v-3.6h11.638l-.838 12.6h-1.8a2.7 2.7 0 00-2.7 2.7zm27 9.9h-2.7v-4.5h-1.8v4.5H45v-4.5h-1.8v4.5h-2.7v-4.5h-1.8v4.5H36v-4.5h-1.8v4.5h-2.7v-4.5h-1.8v4.5H27v-7.2h25.2v7.2zm0-9H27v-.9a.9.9 0 01.9-.9h19.8a2.7 2.7 0 100-5.4H36.9a.9.9 0 010-1.8h14.4a.9.9 0 01.9.9v8.1zm-12.6-3.6v-1.8h1.8v1.8h-1.8zm3.6 0v-1.8h4.5a.9.9 0 010 1.8h-4.5z" fill="#DDA046"/></svg>