<svg width="32" height="32" fill="none" xmlns="http://www.w3.org/2000/svg"><path d="M15.96 31.573c8.561 0 15.5-6.94 15.5-15.5 0-8.56-6.939-15.5-15.5-15.5-8.56 0-15.5 6.94-15.5 15.5 0 8.56 6.94 15.5 15.5 15.5z" fill="#039BE5"/><path d="M8.022 15.737l15.934-5.762c.74-.25 1.385.17 1.146 1.218L22.39 23.18c-.201.85-.74 1.057-1.493.656l-4.131-2.856-1.993 1.8c-.22.208-.406.382-.833.382l.293-3.944 7.657-6.488c.333-.275-.074-.43-.514-.156l-9.462 5.588-4.08-1.194c-.885-.263-.904-.83.188-1.23z" fill="#fff"/></svg>