<svg width="32" height="34" fill="none" xmlns="http://www.w3.org/2000/svg"><ellipse cx="16.077" cy="16.856" rx="15.501" ry="16.204" fill="#7C509A"/><path d="M20.924 9.196a22.99 22.99 0 00-8.976 0c-1.307.295-2.954 1.946-3.238 3.244a19.352 19.352 0 000 7.666c.34 1.298 1.988 2.95 3.238 3.244.057 0 .114.059.114.118v3.715c0 .177.227.295.34.118l1.705-1.828s1.363-1.474 1.59-1.71c0 0 .057-.06.114-.06 1.704.06 3.465-.117 5.17-.412 1.306-.295 2.954-1.946 3.238-3.244a19.36 19.36 0 000-7.666c-.34-1.239-1.988-2.89-3.295-3.185zm.057 11.087c-.284.59-.625 1.062-1.193 1.357l-.512.177a7.48 7.48 0 01-.568-.177c-1.818-.767-3.522-1.829-4.885-3.362a14.252 14.252 0 01-1.875-2.949c-.227-.53-.455-1.002-.625-1.533-.17-.472.114-.944.398-1.297a2.63 2.63 0 011.022-.767c.284-.177.568-.06.796.177.454.59.909 1.18 1.25 1.828.227.413.17.885-.228 1.18-.114.059-.17.117-.284.236-.057.058-.17.117-.227.235a.592.592 0 00-.057.531c.454 1.357 1.307 2.418 2.613 3.008.228.118.398.177.682.177.398-.06.568-.531.852-.767.284-.236.625-.236.966-.059.284.177.568.413.909.649.284.236.568.413.852.649.17.118.227.412.114.707zm-2.386-4.423c-.114 0-.057 0 0 0-.227 0-.284-.118-.341-.295 0-.118 0-.295-.057-.412a1.128 1.128 0 00-.398-.65l-.34-.176c-.17-.06-.285-.06-.455-.06-.17-.058-.227-.176-.227-.353 0-.118.17-.236.284-.236.909.06 1.59.59 1.704 1.71v.236c0 .118-.057.236-.17.236zm-.568-2.595c-.284-.118-.569-.236-.91-.295-.113 0-.283-.059-.397-.059-.17 0-.284-.117-.227-.294 0-.177.113-.295.284-.236.568.059 1.08.177 1.59.412 1.023.531 1.591 1.416 1.762 2.595v.767c-.057.236-.455.295-.512 0 0-.059-.056-.177-.056-.236 0-.53-.114-1.061-.341-1.533-.341-.531-.739-.885-1.193-1.12zm3.067 3.539c-.17 0-.284-.177-.284-.354 0-.354-.056-.708-.113-1.062-.227-1.887-1.705-3.42-3.466-3.715-.284-.059-.568-.059-.795-.118-.17 0-.398 0-.455-.236-.056-.177.114-.354.284-.354h.114c2.33.06.114 0 0 0 2.386.06 4.374 1.71 4.772 4.188.057.412.114.825.114 1.297.113.177 0 .354-.17.354z" fill="#fff"/></svg>