<svg width="60" height="60" fill="none" xmlns="http://www.w3.org/2000/svg"><path fill="#fff" d="M7.454 2.88h46.46v51.515H7.454z"/><path d="M26.384 44.382c0 .074 0 .166-.04.217-.277.357-.607.654-1.038.812-.376.137-.674-.03-.753-.42a2.372 2.372 0 01-.033-.474c-.002-2.903-.01-8.855-.014-8.927h-2.142c0 .08-.002 8.372.003 9.938.001.424.046.846.223 1.24.19.426.504.696.973.773.343.06.679.022 1.005-.09.67-.23 1.193-.665 1.655-1.187.041-.046.085-.09.162-.173v1.3h2.147V35.57l-2.148.006v8.805z" fill="url(#paint0_linear)"/><path d="M36.536 36.513c-.453-.965-1.405-1.22-2.23-1.014-.5.126-.906.415-1.24.787-.11.125-.231.368-.231.368v-5.268h-2.151v16.003h2.15v-.898l.209.221c.494.536 1.093.83 1.831.836.909.01 1.54-.43 1.828-1.294.133-.402.176-.815.177-1.234.003-2.237.003-4.473-.001-6.71 0-.619-.075-1.227-.342-1.797zm-1.872 8.24c0 .12-.015.241-.04.358-.099.469-.456.68-.961.576-.307-.063-.546-.24-.752-.462l-.07-.093v-.175l-.005-7.105s.046-.132.148-.22c.252-.224.532-.365.88-.33.298.028.535.165.646.44.083.21.148.443.15.667.01 2.114.006 4.228.004 6.344z" fill="url(#paint1_linear)"/><path d="M28.8 22.565a.91.91 0 00.91-.91v-6.418a.91.91 0 00-1.82 0v6.418c0 .502.409.91.91.91z" fill="url(#paint2_linear)"/><path d="M22.37 31.387h-7.452v2.294h2.51v13.71h2.426V33.674h2.516v-2.288z" fill="url(#paint3_linear)"/><path d="M42.682 43.195v1.518a.959.959 0 11-1.919 0V41.76h4.12s.024-2.06.007-2.995a6.354 6.354 0 00-.119-1.193c-.213-1.011-.757-1.774-1.775-2.108a3.75 3.75 0 00-.934-.17c-1.047-.067-1.963.232-2.68 1.034-.627.701-.846 1.546-.847 2.463-.004 1.752-.012 3.506.005 5.258.005.447.055.902.157 1.337.218.933.728 1.666 1.627 2.072.657.297 1.35.312 2.051.21 1.13-.167 1.9-.772 2.272-1.864.28-.817.248-2.61.248-2.61h-2.213zm-1.919-4.924a.96.96 0 011.919 0v1.657h-1.919v-1.657z" fill="url(#paint4_linear)"/><path d="M0 0v60h60V0H0zm33.8 12.506h2.186v9.06c0 .12.01.242.03.36.067.373.343.55.702.424.439-.151.773-.455 1.057-.812.04-.051.033-.147.033-.222v-8.81h2.2v11.881h-2.202l.003-1.276c-.243.24-.451.464-.68.665-.404.356-.862.622-1.399.727-.823.16-1.524-.1-1.787-.952a3.138 3.138 0 01-.142-.886V12.506zm-5-.297a3.152 3.152 0 013.153 3.152v6.17a3.152 3.152 0 11-6.305 0v-6.17a3.152 3.152 0 013.152-3.152zm-8.48-3.905s1.002 4.252 1.48 6.267c.478-2.015 1.48-6.267 1.48-6.267h2.505s-1.925 6.383-2.786 9.23a1.128 1.128 0 00-.045.323l.001 6.528h-2.31v-6.528c0-.108-.014-.22-.044-.323-.861-2.847-2.786-9.23-2.786-9.23h2.505zm27.548 37.89a5.367 5.367 0 01-5.252 5.367c-8.41.18-16.822.18-25.232 0a5.367 5.367 0 01-5.25-5.367V33.06a5.367 5.367 0 015.25-5.367c8.41-.18 16.823-.18 25.232 0a5.367 5.367 0 015.252 5.367v13.134z" fill="url(#paint5_linear)"/><defs><linearGradient id="paint0_linear" x1="25.448" y1="35.571" x2="25.448" y2="47.569" gradientUnits="userSpaceOnUse"><stop stop-color="#E32828"/><stop offset="1" stop-color="#AE0000"/></linearGradient><linearGradient id="paint1_linear" x1="33.782" y1="31.386" x2="33.782" y2="47.548" gradientUnits="userSpaceOnUse"><stop stop-color="#E32828"/><stop offset="1" stop-color="#AE0000"/></linearGradient><linearGradient id="paint2_linear" x1="28.8" y1="14.327" x2="28.8" y2="22.565" gradientUnits="userSpaceOnUse"><stop stop-color="#E32828"/><stop offset="1" stop-color="#AE0000"/></linearGradient><linearGradient id="paint3_linear" x1="18.644" y1="31.387" x2="18.644" y2="47.39" gradientUnits="userSpaceOnUse"><stop stop-color="#E32828"/><stop offset="1" stop-color="#AE0000"/></linearGradient><linearGradient id="paint4_linear" x1="41.713" y1="35.285" x2="41.713" y2="47.725" gradientUnits="userSpaceOnUse"><stop stop-color="#E32828"/><stop offset="1" stop-color="#AE0000"/></linearGradient><linearGradient id="paint5_linear" x1="30" y1="0" x2="30" y2="60" gradientUnits="userSpaceOnUse"><stop stop-color="#E32828"/><stop offset="1" stop-color="#AE0000"/></linearGradient></defs></svg>